<?xml version="1.0" encoding="utf-8"?>
<!-- Generator: Adobe Illustrator 25.4.1, SVG Export Plug-In . SVG Version: 6.00 Build 0)  -->
<svg version="1.1" xmlns="http://www.w3.org/2000/svg" xmlns:xlink="http://www.w3.org/1999/xlink" x="0px" y="0px"
	 viewBox="0 0 595.28 841.89" style="enable-background:new 0 0 595.28 841.89;" xml:space="preserve">
<style type="text/css">
	.st0{fill:#0569FF;}
	.st1{fill:#FFFFFF;}
	.st2{fill:none;}
	.st3{font-family:'MyriadPro-Regular';}
	.st4{font-size:48px;}
	.st5{display:none;}
	.st6{display:inline;}
</style>
<g id="Layer_1">
</g>
<g id="Layer_2">
	<g>
		<g>
			<path class="st0" d="M328.39,268.01v-20.29h37.68v-20.8c-18.87-24.09-62.05-40.94-112.32-40.94
				c-67.63,0-122.46,30.5-122.46,68.12c0,37.62,54.83,68.12,122.46,68.12c50.26,0,93.45-16.85,112.32-40.94v-13.26H328.39z"/>
			<path class="st0" d="M386.36,247.72v-37.68h-20.29v16.88c6.52,8.33,10.14,17.52,10.14,27.18c0,9.66-3.62,18.85-10.14,27.18v24.42
				h20.29v-37.68h37.68v-20.29H386.36z"/>
		</g>
		<g>
			<g>
				<path class="st1" d="M145.91,234.67c1.64-1.47,3.68-3.09,6.06-4.62c4.31-2.78,7.94-3.81,10.86-3.45
					c2.97,0.34,5.36,1.89,7.02,4.96c1.67,3.1,1.91,6.23,0.88,9.1c-1.02,2.9-3.7,5.72-7.69,8.33c-1.89,1.24-3.51,2.24-4.93,3.03
					C154.04,246.24,149.98,240.46,145.91,234.67z M159.53,248.44c0.75-0.35,1.75-0.98,2.8-1.66c5.73-3.7,7.34-8.33,4.5-13.44
					c-2.43-4.44-7.21-5.57-13.53-1.53c-1.53,0.99-2.61,1.87-3.3,2.52C153.18,239.04,156.36,243.74,159.53,248.44z"/>
				<path class="st1" d="M173.87,230.16c-0.83-1.62-1.58-3-2.34-4.23c0.89-0.46,1.79-0.91,2.69-1.36c0.48,0.89,0.97,1.78,1.45,2.67
					c0.05-0.02,0.09-0.05,0.14-0.07c-0.16-2.24,1.14-4.33,3.24-5.29c0.35-0.16,0.62-0.25,0.93-0.32c0.36,0.81,0.73,1.61,1.09,2.42
					c-0.34,0.08-0.67,0.2-1.09,0.39c-2.18,1-3.05,3.11-2.52,5.2c0.1,0.38,0.23,0.81,0.44,1.25c1.21,2.47,2.42,4.94,3.63,7.41
					c-0.93,0.46-1.87,0.93-2.79,1.4C177.11,236.48,175.49,233.32,173.87,230.16z"/>
				<path class="st1" d="M197.8,224.05c-0.06,2.42-0.08,4.83-0.08,7.24c-1,0.37-2,0.75-2.99,1.14c-0.09-7.68,0.16-15.43,0.74-23.22
					c1.32-0.45,2.65-0.88,3.98-1.3c5.06,5.95,9.82,12.06,14.27,18.33c-1.06,0.28-2.11,0.57-3.17,0.87c-1.43-1.94-2.9-3.87-4.39-5.79
					C203.36,222.16,200.57,223.07,197.8,224.05z M204.9,219.43c-1.38-1.74-2.79-3.47-4.23-5.19c-0.98-1.17-1.74-2.26-2.5-3.33
					c-0.03,0.01-0.05,0.02-0.08,0.02c0.02,1.34,0.03,2.72-0.03,4.12c-0.14,2.24-0.26,4.48-0.35,6.71
					C200.09,220.94,202.49,220.16,204.9,219.43z"/>
				<path class="st1" d="M240.68,220.68c-1.07,0.62-3.24,1.36-6.09,1.74c-6.54,0.88-12.21-1.81-13.7-8.73
					c-1.43-6.58,3.19-12.31,11.46-13.4c3.29-0.43,5.44-0.06,6.37,0.23c-0.2,0.78-0.4,1.56-0.59,2.34c-1.33-0.38-3.2-0.56-5.36-0.27
					c-6.16,0.81-9.6,4.8-8.53,10.35c1,5.2,4.94,7.85,10.67,7.08c1.86-0.25,3.73-0.81,4.91-1.48
					C240.11,219.26,240.39,219.97,240.68,220.68z"/>
				<path class="st1" d="M259.87,212.68c-0.11,5.72-4.45,8.17-8.51,8.34c-4.54,0.17-8.32-2.56-8.77-7.44
					c-0.48-5.16,3.31-8.56,8.47-8.75C256.39,204.63,259.95,207.95,259.87,212.68z M245.82,213.23c0.24,3.39,2.57,5.78,5.59,5.67
					c2.95-0.11,5.16-2.64,5.16-6.13c-0.01-2.62-1.57-5.97-5.52-5.83C247.1,207.09,245.61,210.3,245.82,213.23z"/>
				<path class="st1" d="M264.04,209.34c0.05-1.6,0.06-2.91-0.01-4.19c0.98,0.03,1.96,0.07,2.94,0.12c0.01,0.83,0.02,1.67,0.03,2.5
					c0.04,0,0.07,0,0.11,0.01c1.08-1.42,2.88-2.71,5.94-2.47c2.52,0.2,4.3,1.68,4.88,3.58c0.03,0,0.05,0.01,0.08,0.01
					c0.65-0.8,1.45-1.39,2.26-1.77c1.18-0.57,2.45-0.8,4.19-0.55c2.44,0.33,5.81,2.27,4.86,7.57c-0.52,2.99-1.05,5.99-1.57,8.98
					c-0.99-0.17-1.99-0.34-2.98-0.49c0.45-2.89,0.91-5.77,1.36-8.66c0.47-2.94-0.52-4.92-3.19-5.28c-1.88-0.25-3.48,0.75-4.19,2.06
					c-0.19,0.36-0.36,0.86-0.42,1.37c-0.36,3.17-0.71,6.34-1.07,9.51c-1-0.11-2-0.22-3-0.31c0.29-3.08,0.58-6.16,0.88-9.24
					c0.24-2.45-0.87-4.37-3.4-4.56c-2.08-0.15-3.67,1.17-4.26,2.55c-0.21,0.41-0.31,0.88-0.33,1.36c-0.16,3.11-0.32,6.22-0.47,9.33
					c-1-0.05-2.01-0.09-3.01-0.13C263.79,216.87,263.92,213.11,264.04,209.34z"/>
				<path class="st1" d="M300.43,205.43c-0.17,0.95-1.18,1.5-2.51,1.22c-1.18-0.25-1.86-1.17-1.67-2.11
					c0.2-0.97,1.24-1.55,2.48-1.28C300.01,203.53,300.65,204.46,300.43,205.43z M292.7,224.06c1.04-5.06,2.07-10.11,3.11-15.17
					c1.1,0.23,2.2,0.46,3.3,0.71c-1.13,5.04-2.25,10.08-3.38,15.11C294.72,224.48,293.71,224.26,292.7,224.06z"/>
				<path class="st1" d="M301.02,223c0.77,0.75,2.21,1.72,3.72,2.14c2.2,0.61,3.51-0.05,3.88-1.28c0.38-1.29-0.27-2.26-2.36-3.64
					c-2.81-1.81-3.92-3.65-3.47-5.45c0.59-2.42,3.44-3.85,7.31-2.74c1.82,0.52,3.28,1.44,4.11,2.24c-0.47,0.57-0.94,1.14-1.41,1.71
					c-0.58-0.58-1.71-1.46-3.36-1.93c-1.91-0.55-3.23,0.1-3.52,1.21c-0.33,1.24,0.57,2.07,2.61,3.45c2.72,1.86,3.81,3.63,3.11,5.82
					c-0.84,2.6-3.64,3.69-7.53,2.61c-1.8-0.5-3.36-1.33-4.38-2.24C300.17,224.26,300.59,223.63,301.02,223z"/>
				<path class="st1" d="M319.91,223.05c0.02,0.01,0.05,0.02,0.07,0.03c0.61-0.36,1.43-0.77,2.12-1.1c2.29-1.05,4.62-2.05,7-3.01
					c1.27,0.52,2.54,1.05,3.8,1.59c-3.07,0.99-6.07,2.05-9.02,3.18c1.38,3.8,2.62,7.6,3.72,11.4c-1.17-0.51-2.34-1.01-3.51-1.5
					c-0.89-3.04-1.87-6.09-2.94-9.13c-0.71,0.31-1.41,0.61-2.11,0.93c-0.66,1.82-1.32,3.65-1.99,5.47
					c-0.97-0.35-1.94-0.69-2.91-1.03c2.46-7.16,4.91-14.33,7.37-21.49c1.1,0.38,2.2,0.76,3.29,1.16
					C323.17,214.06,321.54,218.55,319.91,223.05z"/>
				<path class="st1" d="M334.3,230.25c-1.53,3.49,0.3,6.06,3.14,7.51c2.04,1.04,3.42,1.39,4.7,1.57c-0.16,0.68-0.32,1.35-0.49,2.03
					c-1.2-0.15-3.12-0.61-5.58-1.86c-4.74-2.39-6.38-6.5-4.51-10.79c1.87-4.27,6.44-6.32,11.42-3.82c5.56,2.83,4.79,7.6,3.4,10.06
					c-0.28,0.5-0.56,0.86-0.74,1.09C341.92,233.97,338.14,232.04,334.3,230.25z M343.89,232.79c0.88-1.55,1.39-4.48-2.05-6.22
					c-3.1-1.55-5.58,0.21-6.64,1.87C338.12,229.81,341.02,231.25,343.89,232.79z"/>
				<path class="st1" d="M354.57,231.66c-0.36,3.34-0.79,6.65-1.28,9.94c-0.19,1.09-0.46,2.36-0.71,3.3
					c0.02,0.01,0.04,0.03,0.06,0.04c0.78-0.6,1.73-1.4,2.72-2.1c2.66-1.89,5.36-3.74,8.11-5.54c1.02,0.69,2.04,1.39,3.06,2.1
					c-3.55,2-7.04,4.08-10.44,6.24c-4.89,3.14-7.62,4.63-10.3,4.93c-1.93,0.24-3.45-0.1-4.18-0.37c0.18-0.81,0.35-1.62,0.52-2.43
					c0.78,0.19,1.89,0.32,3.05,0.19c1.04-0.08,2.53-0.46,3.9-1.3c0.28-0.17,0.49-0.3,0.57-0.44c0.08-0.14,0.14-0.36,0.2-0.74
					c0.65-5.19,1.13-10.45,1.44-15.74C352.4,230.37,353.49,231.01,354.57,231.66z"/>
			</g>
		</g>
		<g>
			<g>
				<g>
					<path class="st1" d="M196.69,279.96c1.38,0.08,3.16,0.27,5.38,0.71c2.73,0.55,4.61,1.53,5.7,2.89
						c1.01,1.22,1.47,2.88,1.15,4.77c-0.32,1.93-1.16,3.34-2.49,4.25c-1.8,1.28-4.46,1.61-7.31,1.04c-0.87-0.18-1.66-0.37-2.3-0.67
						c-0.6,2.82-1.19,5.63-1.79,8.45c-1-0.21-2-0.43-3-0.65C193.59,293.83,195.14,286.9,196.69,279.96z M197.3,290.74
						c0.59,0.29,1.38,0.52,2.34,0.71c3.49,0.7,5.91-0.54,6.42-3.47c0.49-2.81-1.29-4.51-4.35-5.12c-1.22-0.24-2.16-0.34-2.67-0.32
						C198.46,285.27,197.88,288,197.3,290.74z"/>
					<path class="st1" d="M219.68,305.43c-0.01-0.66-0.01-1.31-0.02-1.97c-0.03,0-0.07-0.01-0.1-0.01c-1.07,1.1-3.02,1.96-5.43,1.64
						c-3.42-0.47-4.82-2.94-4.47-5.15c0.6-3.71,4.38-5.13,10.64-4.36c0.01-0.11,0.02-0.21,0.04-0.32c0.15-1.28,0.05-3.59-3.22-4.01
						c-1.49-0.2-3.1,0.03-4.33,0.56c-0.13-0.64-0.26-1.29-0.38-1.93c1.44-0.62,3.41-0.89,5.41-0.63c4.83,0.61,5.69,3.91,5.37,7.01
						c-0.2,1.92-0.41,3.84-0.61,5.76c-0.14,1.34-0.21,2.65-0.11,3.72C221.54,305.64,220.61,305.53,219.68,305.43z M220.14,297.52
						c-3.24-0.44-6.99-0.43-7.43,2.55c-0.26,1.8,0.93,2.85,2.49,3.06c2.18,0.29,3.72-0.82,4.35-2.07c0.14-0.27,0.24-0.58,0.28-0.87
						C219.93,299.3,220.04,298.41,220.14,297.52z"/>
					<path class="st1" d="M228.07,295.56c0.16-1.82,0.26-3.38,0.29-4.82c0.84,0.07,1.69,0.14,2.54,0.21
						c-0.04,1.01-0.09,2.03-0.13,3.04c0.04,0,0.09,0.01,0.13,0.01c0.89-2.02,2.73-3.2,4.67-3.09c0.33,0.02,0.56,0.06,0.82,0.14
						c-0.05,0.88-0.1,1.77-0.15,2.65c-0.3-0.08-0.59-0.13-0.99-0.15c-2.06-0.12-3.63,1.27-4.19,3.34c-0.1,0.38-0.2,0.82-0.23,1.3
						c-0.21,2.74-0.41,5.49-0.62,8.23c-1.01-0.08-2.03-0.16-3.04-0.25C227.46,302.64,227.77,299.1,228.07,295.56z"/>
					<path class="st1" d="M242.9,287.13c-0.04,1.48-0.09,2.96-0.13,4.45c1.39,0.04,2.77,0.07,4.16,0.09
						c-0.01,0.71-0.02,1.43-0.03,2.14c-1.4-0.02-2.8-0.05-4.2-0.09c-0.08,2.78-0.16,5.57-0.25,8.35c-0.06,1.92,0.5,3.03,2.21,3.06
						c0.8,0.02,1.39-0.07,1.78-0.16c0.04,0.7,0.07,1.41,0.11,2.11c-0.6,0.22-1.55,0.36-2.74,0.33c-1.44-0.03-2.59-0.49-3.29-1.28
						c-0.84-0.86-1.1-2.25-1.02-4.07c0.11-2.81,0.23-5.63,0.34-8.44c-0.83-0.03-1.66-0.07-2.49-0.11c0.04-0.71,0.07-1.43,0.11-2.14
						c0.82,0.04,1.65,0.08,2.47,0.11c0.05-1.24,0.1-2.47,0.15-3.71C241.02,287.56,241.96,287.35,242.9,287.13z"/>
					<path class="st1" d="M250.19,295.88c0-1.6-0.03-2.91-0.13-4.19c0.86,0,1.72,0,2.58-0.01c0.06,0.85,0.13,1.71,0.19,2.56
						c0.02,0,0.04,0,0.07,0c0.79-1.48,2.61-2.94,5.24-3.02c2.2-0.06,5.69,1.04,5.99,6.34c0.17,3.08,0.34,6.16,0.5,9.23
						c-1.03,0.06-2.05,0.11-3.08,0.15c-0.13-2.97-0.25-5.95-0.38-8.92c-0.11-2.5-1.17-4.52-3.92-4.44c-1.93,0.05-3.4,1.39-3.89,2.96
						c-0.13,0.35-0.19,0.83-0.19,1.31c0.04,3.1,0.07,6.21,0.11,9.31c-1.03,0.01-2.06,0.02-3.08,0.02
						C250.2,303.41,250.19,299.64,250.19,295.88z"/>
					<path class="st1" d="M270.78,299.12c0.36,3.79,3.13,5.15,6.19,4.83c2.18-0.22,3.46-0.73,4.55-1.31
						c0.25,0.65,0.51,1.29,0.76,1.94c-1.02,0.58-2.82,1.31-5.51,1.58c-5.23,0.52-8.57-2.43-8.87-7.08c-0.3-4.67,2.28-8.51,6.89-8.96
						c5.17-0.53,7.11,3.67,7.47,6.5c0.07,0.57,0.06,1.02,0.06,1.31C278.48,298.42,274.63,298.81,270.78,299.12z M279.31,296.27
						c-0.17-1.79-1.29-4.44-4.56-4.12c-2.94,0.28-4.02,2.99-4.11,4.96C273.54,296.88,276.43,296.6,279.31,296.27z"/>
					<path class="st1" d="M285.64,294.04c-0.25-1.81-0.5-3.35-0.8-4.77c0.84-0.12,1.68-0.24,2.52-0.37c0.18,1,0.37,1.99,0.55,2.99
						c0.04-0.01,0.09-0.01,0.13-0.02c0.42-2.17,1.95-3.73,3.87-4.05c0.33-0.06,0.56-0.06,0.83-0.04c0.15,0.87,0.3,1.74,0.45,2.62
						c-0.31-0.01-0.61,0.01-1.01,0.07c-2.04,0.34-3.26,2.05-3.35,4.2c-0.01,0.39-0.01,0.84,0.06,1.32c0.41,2.72,0.83,5.44,1.24,8.16
						c-1.01,0.15-2.02,0.3-3.02,0.44C286.63,301.08,286.14,297.56,285.64,294.04z"/>
					<path class="st1" d="M297.54,300c0.99,0.37,2.68,0.64,4.19,0.34c2.2-0.44,3.01-1.67,2.74-2.92c-0.28-1.32-1.28-1.85-3.61-2.16
						c-3.12-0.39-4.77-1.67-5.1-3.49c-0.44-2.46,1.25-4.83,4.62-5.52c1.59-0.33,3.08-0.19,4.07,0.12c-0.09,0.72-0.18,1.44-0.28,2.16
						c-0.71-0.24-1.96-0.49-3.43-0.19c-1.7,0.35-2.47,1.47-2.25,2.6c0.24,1.26,1.31,1.64,3.57,1.96c3.01,0.42,4.74,1.4,5.25,3.65
						c0.6,2.65-1.25,5.05-5.24,5.85c-1.83,0.36-3.61,0.27-4.9-0.15C297.29,301.49,297.42,300.74,297.54,300z"/>
				</g>
			</g>
			<rect x="235.27" y="235.52" class="st2" width="51.27" height="44.7"/>
			<text transform="matrix(1 0 0 1 235.2696 269.5974)" class="st1 st3 st4">&amp;</text>
		</g>
	</g>
</g>
<g id="Layer_3" class="st5">
	<g class="st6">
		<g>
			<path class="st0" d="M333.54,364.86v-20.29h37.68v-20.8c-18.87-24.09-62.05-40.94-112.32-40.94
				c-67.63,0-122.46,30.5-122.46,68.12c0,37.62,54.83,68.12,122.46,68.12c50.26,0,93.45-16.85,112.32-40.94v-13.26H333.54z"/>
			<path class="st0" d="M391.51,344.57v-37.68h-20.29v16.88c6.52,8.33,10.14,17.52,10.14,27.18c0,9.66-3.62,18.85-10.14,27.18v24.42
				h20.29v-37.68h37.68v-20.29H391.51z"/>
		</g>
		<g>
			<g>
				<path class="st1" d="M151.06,331.52c1.64-1.47,3.68-3.09,6.06-4.62c4.31-2.78,7.94-3.81,10.86-3.45
					c2.97,0.34,5.36,1.89,7.02,4.96c1.67,3.1,1.91,6.23,0.88,9.1c-1.02,2.9-3.7,5.72-7.69,8.33c-1.89,1.24-3.51,2.24-4.93,3.03
					C159.19,343.09,155.12,337.31,151.06,331.52z M164.68,345.29c0.75-0.35,1.75-0.98,2.8-1.66c5.73-3.7,7.34-8.33,4.5-13.44
					c-2.43-4.44-7.21-5.57-13.53-1.53c-1.53,0.99-2.61,1.87-3.3,2.52C158.33,335.89,161.5,340.59,164.68,345.29z"/>
				<path class="st1" d="M179.02,327.01c-0.83-1.62-1.58-3-2.34-4.23c0.89-0.46,1.79-0.91,2.69-1.36c0.48,0.89,0.97,1.78,1.45,2.67
					c0.05-0.02,0.09-0.05,0.14-0.07c-0.16-2.24,1.14-4.33,3.24-5.29c0.35-0.16,0.62-0.25,0.93-0.32c0.36,0.81,0.73,1.61,1.09,2.42
					c-0.34,0.08-0.67,0.2-1.09,0.39c-2.18,1-3.05,3.11-2.52,5.2c0.1,0.38,0.23,0.81,0.44,1.24c1.21,2.47,2.42,4.94,3.63,7.41
					c-0.93,0.46-1.87,0.93-2.79,1.4C182.26,333.33,180.64,330.17,179.02,327.01z"/>
				<path class="st1" d="M202.95,320.9c-0.06,2.42-0.08,4.83-0.08,7.24c-1,0.37-2,0.75-2.99,1.14c-0.09-7.68,0.16-15.43,0.74-23.22
					c1.32-0.45,2.65-0.88,3.98-1.3c5.06,5.95,9.82,12.06,14.27,18.33c-1.06,0.28-2.11,0.57-3.17,0.87c-1.43-1.94-2.9-3.87-4.39-5.79
					C208.5,319.01,205.72,319.92,202.95,320.9z M210.04,316.28c-1.38-1.74-2.79-3.47-4.23-5.19c-0.98-1.17-1.74-2.26-2.5-3.33
					c-0.03,0.01-0.05,0.02-0.08,0.02c0.02,1.34,0.03,2.72-0.03,4.12c-0.14,2.24-0.26,4.48-0.35,6.71
					C205.24,317.79,207.63,317.01,210.04,316.28z"/>
				<path class="st1" d="M245.82,317.53c-1.07,0.62-3.25,1.36-6.09,1.74c-6.54,0.88-12.21-1.81-13.7-8.73
					c-1.43-6.58,3.19-12.31,11.46-13.4c3.29-0.43,5.44-0.06,6.37,0.23c-0.2,0.78-0.4,1.56-0.59,2.34c-1.33-0.38-3.2-0.56-5.36-0.27
					c-6.16,0.81-9.6,4.8-8.53,10.35c1,5.2,4.94,7.85,10.67,7.08c1.86-0.25,3.73-0.81,4.91-1.48
					C245.25,316.11,245.54,316.82,245.82,317.53z"/>
				<path class="st1" d="M265.01,309.52c-0.11,5.72-4.45,8.17-8.51,8.34c-4.54,0.17-8.32-2.56-8.77-7.44
					c-0.48-5.16,3.31-8.56,8.47-8.75C261.54,301.48,265.1,304.8,265.01,309.52z M250.97,310.08c0.24,3.39,2.57,5.78,5.59,5.67
					c2.95-0.11,5.16-2.64,5.16-6.13c-0.01-2.62-1.57-5.97-5.52-5.83C252.25,303.94,250.76,307.15,250.97,310.08z"/>
				<path class="st1" d="M269.19,306.19c0.05-1.6,0.06-2.91-0.01-4.19c0.98,0.03,1.96,0.07,2.94,0.12c0.01,0.83,0.02,1.67,0.03,2.5
					c0.04,0,0.07,0,0.11,0.01c1.08-1.42,2.88-2.71,5.94-2.47c2.52,0.2,4.3,1.68,4.88,3.58c0.03,0,0.05,0.01,0.08,0.01
					c0.65-0.8,1.45-1.39,2.26-1.77c1.18-0.57,2.45-0.8,4.19-0.55c2.44,0.33,5.81,2.27,4.86,7.57c-0.52,2.99-1.05,5.99-1.57,8.98
					c-0.99-0.17-1.99-0.34-2.98-0.49c0.45-2.89,0.91-5.77,1.36-8.66c0.47-2.94-0.52-4.92-3.19-5.28c-1.88-0.25-3.48,0.75-4.19,2.06
					c-0.19,0.36-0.36,0.86-0.42,1.37c-0.36,3.17-0.71,6.34-1.07,9.51c-1-0.11-2-0.22-3-0.31c0.29-3.08,0.58-6.16,0.88-9.24
					c0.24-2.45-0.87-4.37-3.4-4.56c-2.08-0.15-3.67,1.17-4.26,2.55c-0.21,0.41-0.3,0.88-0.33,1.36c-0.16,3.11-0.32,6.22-0.47,9.33
					c-1-0.05-2.01-0.09-3.01-0.13C268.94,313.72,269.06,309.96,269.19,306.19z"/>
				<path class="st1" d="M305.58,302.28c-0.17,0.95-1.18,1.5-2.51,1.22c-1.18-0.25-1.86-1.17-1.67-2.11
					c0.2-0.97,1.24-1.55,2.48-1.28C305.16,300.38,305.8,301.31,305.58,302.28z M297.84,320.91c1.04-5.06,2.07-10.11,3.11-15.17
					c1.1,0.23,2.2,0.46,3.3,0.71c-1.13,5.04-2.25,10.08-3.38,15.11C299.86,321.33,298.85,321.11,297.84,320.91z"/>
				<path class="st1" d="M306.17,319.85c0.77,0.75,2.21,1.72,3.72,2.14c2.2,0.61,3.51-0.05,3.88-1.28c0.38-1.29-0.27-2.26-2.36-3.64
					c-2.81-1.81-3.92-3.65-3.47-5.45c0.59-2.42,3.45-3.85,7.31-2.74c1.82,0.52,3.28,1.44,4.11,2.24c-0.47,0.57-0.94,1.14-1.41,1.71
					c-0.58-0.58-1.71-1.46-3.36-1.93c-1.91-0.55-3.23,0.1-3.52,1.21c-0.33,1.24,0.57,2.07,2.61,3.45c2.72,1.86,3.81,3.63,3.11,5.82
					c-0.84,2.6-3.64,3.69-7.53,2.61c-1.8-0.5-3.36-1.33-4.38-2.24C305.31,321.11,305.74,320.48,306.17,319.85z"/>
				<path class="st1" d="M325.06,319.89c0.02,0.01,0.05,0.02,0.07,0.03c0.6-0.36,1.43-0.77,2.12-1.1c2.29-1.05,4.62-2.05,7-3.01
					c1.27,0.52,2.54,1.05,3.8,1.59c-3.07,0.99-6.07,2.05-9.02,3.18c1.38,3.8,2.62,7.6,3.72,11.4c-1.17-0.51-2.34-1.01-3.51-1.5
					c-0.89-3.04-1.87-6.09-2.94-9.13c-0.71,0.31-1.41,0.61-2.11,0.93c-0.66,1.82-1.32,3.65-1.99,5.47
					c-0.97-0.35-1.94-0.69-2.91-1.03c2.46-7.16,4.91-14.33,7.37-21.49c1.1,0.38,2.2,0.76,3.29,1.16
					C328.32,310.91,326.69,315.4,325.06,319.89z"/>
				<path class="st1" d="M339.45,327.1c-1.53,3.49,0.3,6.06,3.14,7.51c2.04,1.04,3.42,1.39,4.7,1.57c-0.16,0.68-0.32,1.35-0.49,2.03
					c-1.2-0.15-3.12-0.61-5.58-1.86c-4.74-2.39-6.38-6.5-4.51-10.79c1.87-4.27,6.44-6.32,11.42-3.82c5.56,2.83,4.79,7.6,3.4,10.06
					c-0.28,0.5-0.56,0.86-0.74,1.09C347.06,330.82,343.28,328.89,339.45,327.1z M349.03,329.63c0.88-1.55,1.39-4.48-2.05-6.22
					c-3.1-1.55-5.59,0.21-6.64,1.87C343.26,326.65,346.16,328.1,349.03,329.63z"/>
				<path class="st1" d="M359.72,328.5c-0.36,3.34-0.79,6.65-1.28,9.94c-0.19,1.09-0.46,2.36-0.71,3.3
					c0.02,0.01,0.04,0.03,0.06,0.04c0.78-0.6,1.73-1.4,2.72-2.1c2.66-1.89,5.36-3.74,8.11-5.54c1.02,0.69,2.04,1.39,3.06,2.1
					c-3.55,2-7.04,4.08-10.44,6.24c-4.89,3.14-7.62,4.63-10.3,4.93c-1.93,0.24-3.45-0.1-4.18-0.37c0.18-0.81,0.35-1.62,0.52-2.43
					c0.78,0.19,1.89,0.32,3.05,0.19c1.04-0.08,2.53-0.46,3.9-1.3c0.27-0.17,0.49-0.3,0.57-0.44c0.08-0.14,0.14-0.36,0.2-0.74
					c0.65-5.2,1.13-10.45,1.44-15.74C357.54,327.22,358.63,327.86,359.72,328.5z"/>
			</g>
		</g>
		<g>
			<g>
				<g>
					<path class="st1" d="M201.84,376.81c1.38,0.08,3.16,0.27,5.38,0.71c2.73,0.55,4.61,1.53,5.7,2.89
						c1.01,1.22,1.47,2.88,1.15,4.77c-0.32,1.92-1.16,3.34-2.49,4.25c-1.8,1.28-4.46,1.61-7.31,1.04c-0.87-0.18-1.66-0.37-2.3-0.67
						c-0.6,2.82-1.19,5.63-1.79,8.45c-1-0.21-2-0.43-3-0.65C198.74,390.68,200.29,383.74,201.84,376.81z M202.45,387.59
						c0.59,0.29,1.38,0.52,2.34,0.71c3.49,0.7,5.91-0.54,6.42-3.47c0.49-2.81-1.29-4.51-4.35-5.12c-1.22-0.24-2.16-0.34-2.67-0.32
						C203.6,382.12,203.02,384.85,202.45,387.59z"/>
					<path class="st1" d="M224.83,402.27c-0.01-0.66-0.01-1.31-0.02-1.97c-0.03,0-0.07-0.01-0.1-0.01c-1.07,1.1-3.02,1.96-5.43,1.64
						c-3.42-0.47-4.82-2.94-4.47-5.15c0.6-3.71,4.38-5.13,10.64-4.36c0.01-0.11,0.02-0.21,0.04-0.32c0.15-1.28,0.04-3.59-3.22-4.01
						c-1.49-0.2-3.1,0.03-4.33,0.56c-0.13-0.64-0.26-1.29-0.38-1.93c1.44-0.62,3.41-0.89,5.41-0.63c4.83,0.61,5.69,3.91,5.37,7.01
						c-0.2,1.92-0.41,3.84-0.61,5.76c-0.14,1.34-0.21,2.65-0.11,3.72C226.69,402.48,225.76,402.38,224.83,402.27z M225.29,394.37
						c-3.24-0.44-6.99-0.43-7.43,2.55c-0.26,1.8,0.93,2.85,2.49,3.06c2.18,0.29,3.72-0.82,4.35-2.07c0.14-0.27,0.24-0.58,0.28-0.87
						C225.08,396.15,225.19,395.26,225.29,394.37z"/>
					<path class="st1" d="M233.22,392.41c0.16-1.82,0.26-3.38,0.29-4.82c0.84,0.07,1.69,0.14,2.54,0.21
						c-0.04,1.01-0.09,2.03-0.13,3.04c0.04,0,0.09,0.01,0.13,0.01c0.89-2.02,2.73-3.2,4.67-3.09c0.33,0.02,0.56,0.06,0.82,0.14
						c-0.05,0.88-0.1,1.77-0.15,2.65c-0.3-0.08-0.59-0.13-0.99-0.15c-2.06-0.12-3.63,1.27-4.19,3.34c-0.1,0.38-0.2,0.82-0.23,1.3
						c-0.21,2.74-0.41,5.49-0.62,8.23c-1.01-0.08-2.03-0.16-3.04-0.25C232.61,399.49,232.91,395.95,233.22,392.41z"/>
					<path class="st1" d="M248.04,383.98c-0.04,1.48-0.09,2.96-0.13,4.45c1.39,0.04,2.77,0.07,4.16,0.09
						c-0.01,0.71-0.02,1.43-0.03,2.14c-1.4-0.02-2.8-0.05-4.2-0.09c-0.08,2.78-0.16,5.57-0.25,8.35c-0.06,1.92,0.5,3.03,2.21,3.06
						c0.8,0.02,1.39-0.07,1.78-0.16c0.04,0.7,0.07,1.41,0.11,2.11c-0.6,0.22-1.55,0.36-2.74,0.33c-1.44-0.03-2.59-0.49-3.29-1.28
						c-0.84-0.86-1.1-2.25-1.02-4.07c0.11-2.81,0.23-5.63,0.34-8.44c-0.83-0.03-1.66-0.07-2.49-0.11c0.04-0.71,0.07-1.43,0.11-2.14
						c0.82,0.04,1.65,0.08,2.47,0.11c0.05-1.24,0.1-2.47,0.15-3.71C246.17,384.41,247.11,384.2,248.04,383.98z"/>
					<path class="st1" d="M255.34,392.73c0-1.6-0.03-2.91-0.13-4.19c0.86,0,1.72,0,2.58-0.01c0.06,0.85,0.13,1.71,0.19,2.56
						c0.02,0,0.04,0,0.07,0c0.79-1.48,2.61-2.94,5.24-3.02c2.2-0.06,5.68,1.04,5.99,6.34c0.17,3.08,0.34,6.16,0.5,9.23
						c-1.03,0.06-2.05,0.11-3.08,0.15c-0.13-2.97-0.25-5.95-0.38-8.92c-0.11-2.5-1.17-4.52-3.92-4.44c-1.93,0.05-3.4,1.39-3.89,2.96
						c-0.13,0.35-0.19,0.83-0.19,1.31c0.04,3.1,0.07,6.21,0.11,9.31c-1.03,0.01-2.06,0.02-3.08,0.02
						C255.34,400.26,255.34,396.49,255.34,392.73z"/>
					<path class="st1" d="M275.92,395.97c0.36,3.79,3.13,5.15,6.19,4.83c2.18-0.22,3.46-0.73,4.55-1.31
						c0.25,0.65,0.51,1.29,0.76,1.94c-1.02,0.58-2.82,1.31-5.51,1.58c-5.23,0.52-8.57-2.43-8.87-7.08c-0.3-4.67,2.28-8.51,6.89-8.96
						c5.16-0.53,7.11,3.67,7.47,6.5c0.07,0.57,0.06,1.02,0.06,1.31C283.63,395.27,279.78,395.66,275.92,395.97z M284.46,393.12
						c-0.17-1.79-1.29-4.44-4.56-4.12c-2.94,0.28-4.02,2.99-4.11,4.96C278.69,393.72,281.58,393.44,284.46,393.12z"/>
					<path class="st1" d="M290.79,390.89c-0.25-1.81-0.5-3.35-0.8-4.77c0.84-0.12,1.68-0.24,2.52-0.37c0.18,1,0.37,1.99,0.55,2.99
						c0.04-0.01,0.09-0.01,0.13-0.02c0.42-2.17,1.95-3.73,3.87-4.05c0.33-0.05,0.56-0.06,0.83-0.04c0.15,0.87,0.3,1.74,0.45,2.62
						c-0.31-0.01-0.61,0.01-1.01,0.07c-2.04,0.34-3.26,2.05-3.35,4.2c-0.01,0.39-0.01,0.84,0.06,1.32c0.41,2.72,0.83,5.44,1.24,8.16
						c-1.01,0.15-2.02,0.3-3.02,0.44C291.78,397.93,291.28,394.41,290.79,390.89z"/>
					<path class="st1" d="M302.69,396.84c0.99,0.37,2.68,0.64,4.19,0.34c2.2-0.44,3.01-1.67,2.74-2.92
						c-0.28-1.32-1.28-1.85-3.61-2.16c-3.12-0.39-4.77-1.67-5.1-3.49c-0.44-2.46,1.25-4.83,4.62-5.52c1.59-0.33,3.08-0.19,4.07,0.12
						c-0.09,0.72-0.18,1.44-0.28,2.16c-0.71-0.24-1.96-0.49-3.43-0.19c-1.7,0.35-2.47,1.47-2.25,2.6c0.24,1.25,1.31,1.64,3.57,1.96
						c3.01,0.42,4.74,1.4,5.25,3.65c0.6,2.65-1.25,5.05-5.24,5.85c-1.83,0.36-3.61,0.27-4.9-0.15
						C302.44,398.34,302.57,397.59,302.69,396.84z"/>
				</g>
			</g>
			<rect x="240.42" y="332.37" class="st2" width="51.27" height="44.7"/>
			<text transform="matrix(1 0 0 1 240.4169 366.446)" class="st1 st3 st4">&amp;</text>
		</g>
	</g>
</g>
</svg>
